<svg width="41" height="40" viewBox="0 0 41 40" fill="none" xmlns="http://www.w3.org/2000/svg">
<path d="M34.3218 1.99558H31.4021C30.0771 1.99707 29.0034 3.01711 29.0019 4.27584V6.70941L22.3078 0.662069C21.344 -0.22069 19.8178 -0.22069 18.854 0.662069L1.47667 16.3606C0.688835 17.0717 0.440122 18.1688 0.849955 19.1249C1.21875 20.0545 2.15685 20.6684 3.20253 20.6644H3.73589V37.6663C3.74905 38.9656 4.86678 40.0096 6.23445 40H34.9255C36.2932 40.0096 37.4109 38.9656 37.424 37.6663V20.6644H37.9574C39.0031 20.6684 39.9412 20.0545 40.31 19.1249C40.7198 18.1687 40.4711 17.0717 39.6833 16.3606L36.7222 13.685V4.27584C36.7205 3.01711 35.6468 1.99707 34.3218 1.99558ZM30.4056 4.27584C30.4063 3.75328 30.8521 3.3298 31.4021 3.32909H34.3218C34.8719 3.3298 35.3176 3.75328 35.3184 4.27584V12.4168L30.4056 7.9776V4.27584ZM39.0059 18.6309C38.8446 19.0494 38.4265 19.3286 37.9573 19.3309H36.7221C36.3344 19.3309 36.0203 19.6295 36.0203 19.9977V37.6663C36.0076 38.2293 35.5181 38.6765 34.9254 38.6664H6.23437C5.6417 38.6765 5.15217 38.2293 5.13951 37.6663V19.9977C5.13951 19.6294 4.82525 19.3309 4.4377 19.3309H3.20244C2.73331 19.3286 2.31517 19.0494 2.15389 18.6309C1.95543 18.1812 2.07082 17.6618 2.44372 17.3267L19.8233 1.62288C20.2431 1.22877 20.9186 1.22877 21.3385 1.62288L38.7166 17.3247C39.0901 17.6604 39.2052 18.1807 39.0059 18.6309Z" fill="#025595"/>
<path d="M10.0523 23.9982C10.0494 27.6801 12.1784 31.0653 15.5927 32.8078C19.007 34.5502 23.1533 34.3676 26.3833 32.3325L31.0252 36.743C31.5562 37.2473 32.33 37.4442 33.0551 37.2595C33.7803 37.0747 34.3466 36.5366 34.5409 35.8476C34.7352 35.1587 34.5278 34.4237 33.9968 33.9194L29.3527 29.5115C31.8445 25.943 31.6681 21.2633 28.9142 17.8732C26.1603 14.483 21.44 13.1346 17.1746 14.5196C12.9092 15.9047 10.0456 19.7159 10.0523 23.9982ZM33.008 34.8661C33.1408 34.9886 33.2157 35.1569 33.2157 35.3327C33.2157 35.5085 33.1408 35.6769 33.008 35.7994C32.7345 36.0567 32.294 36.0567 32.0206 35.7994L27.5064 31.511C27.8567 31.2195 28.1863 30.9064 28.4932 30.5735L33.008 34.8661ZM29.7038 23.9982C29.7038 28.7852 25.6188 32.6658 20.5799 32.6658C15.541 32.6658 11.456 28.7852 11.456 23.9982C11.456 19.2111 15.5409 15.3305 20.5798 15.3305C25.6164 15.336 29.6979 19.2134 29.7038 23.9982Z" fill="#025595"/>
<path fill-rule="evenodd" clip-rule="evenodd" d="M17.4434 17.2967C14.6586 18.4769 12.8636 21.1012 12.8597 23.9981C12.8597 24.3664 13.174 24.6648 13.5615 24.6648C13.9492 24.6648 14.2634 24.3663 14.2634 23.9981C14.2671 21.6274 15.7364 19.48 18.0154 18.5141C18.2493 18.4201 18.4114 18.2133 18.4393 17.9735C18.4673 17.7337 18.3567 17.4982 18.1501 17.3579C17.9436 17.2175 17.6733 17.1941 17.4434 17.2967Z" fill="#025595"/>
<path d="M20.5799 17.9975C20.9675 17.9975 21.2817 17.699 21.2817 17.3308C21.2817 16.9626 20.9675 16.6641 20.5799 16.6641C20.1923 16.6641 19.8781 16.9626 19.8781 17.3308C19.8781 17.699 20.1923 17.9975 20.5799 17.9975Z" fill="#025595"/>
</svg>
