<svg width="43" height="40" viewBox="0 0 43 40" fill="none" xmlns="http://www.w3.org/2000/svg">
<g clip-path="url(#clip0_0_42)">
<path d="M34.7953 1.99558H31.8756C30.5506 1.99707 29.4769 3.01711 29.4753 4.27584V6.70941L22.7812 0.662069C21.8175 -0.22069 20.2912 -0.22069 19.3274 0.662069L1.95011 16.3606C1.16228 17.0717 0.913564 18.1688 1.3234 19.1249C1.69219 20.0545 2.63029 20.6684 3.67597 20.6644H4.20934V37.6663C4.2225 38.9656 5.34023 40.0096 6.7079 40H35.399C36.7666 40.0096 37.8844 38.9656 37.8975 37.6663V20.6644H38.4309C39.4766 20.6684 40.4147 20.0545 40.7835 19.1249C41.1933 18.1687 40.9446 17.0717 40.1567 16.3606L37.1957 13.685V4.27584C37.194 3.01711 36.1203 1.99707 34.7953 1.99558ZM30.879 4.27584C30.8798 3.75328 31.3255 3.3298 31.8756 3.32909H34.7953C35.3453 3.3298 35.7911 3.75328 35.7918 4.27584V12.4168L30.879 7.9776V4.27584ZM39.4794 18.6309C39.3181 19.0494 38.8999 19.3286 38.4308 19.3309H37.1955C36.8079 19.3309 36.4937 19.6295 36.4937 19.9977V37.6663C36.4811 38.2293 35.9915 38.6765 35.3989 38.6664H6.70782C6.11515 38.6765 5.62562 38.2293 5.61295 37.6663V19.9977C5.61295 19.6294 5.29869 19.3309 4.91115 19.3309H3.67589C3.20676 19.3286 2.78862 19.0494 2.62733 18.6309C2.42887 18.1812 2.54426 17.6618 2.91717 17.3267L20.2967 1.62288C20.7166 1.22877 21.3921 1.22877 21.8119 1.62288L39.1901 17.3247C39.5636 17.6604 39.6787 18.1807 39.4794 18.6309Z" fill="#025595"/>
<path fill-rule="evenodd" clip-rule="evenodd" d="M9.29858 24.7083C9.29858 30.6038 14.3482 35.4007 20.554 35.4007C26.7598 35.4007 31.8092 30.6038 31.8092 24.7083C31.8092 24.3564 31.7918 24.0084 31.7571 23.6653C31.7161 23.2648 31.3427 22.9731 30.9191 23.0101C30.4975 23.0489 30.1886 23.4047 30.2294 23.8062C30.259 24.1026 30.2744 24.4039 30.2744 24.7083C30.2744 29.7998 25.9135 33.9426 20.554 33.9426C15.1943 33.9426 10.8334 29.7998 10.8334 24.7083C10.8334 19.6166 15.1943 15.4737 20.554 15.4737C22.4172 15.4737 24.2303 15.9781 25.7958 16.9337C26.1529 17.1514 26.6268 17.0533 26.8568 16.7141C27.0862 16.3749 26.9818 15.9238 26.6256 15.706C24.8115 14.5998 22.712 14.0156 20.554 14.0156C14.3482 14.0156 9.29858 18.8128 9.29858 24.7083ZM21.2907 26.9242C21.44 27.0669 21.6365 27.138 21.8329 27.138C22.0294 27.138 22.2258 27.0669 22.3762 26.9251L33.6316 16.2324C33.9314 15.9477 33.9314 15.486 33.6316 15.2012C33.3319 14.9164 32.8459 14.9164 32.5459 15.2012L21.834 25.3777L17.7718 21.5185C17.472 21.2337 16.986 21.2337 16.6862 21.5185C16.3864 21.8033 16.3864 22.265 16.6862 22.55L21.2907 26.9242Z" fill="#025595"/>
</g>
<defs>
<clipPath id="clip0_0_42">
<rect width="42.1053" height="40" fill="white" transform="translate(0.000709534)"/>
</clipPath>
</defs>
</svg>
