<svg width="31" height="30" viewBox="0 0 31 30" fill="none" xmlns="http://www.w3.org/2000/svg">
<path opacity="0.4" d="M15.5101 27.375C22.403 27.375 27.9907 21.7786 27.9907 14.875C27.9907 7.97144 22.403 2.375 15.5101 2.375C8.61731 2.375 3.02957 7.97144 3.02957 14.875C3.02957 21.7786 8.61731 27.375 15.5101 27.375Z" fill="#025595"/>
<path d="M18.3303 15L16.4458 14.3375V10.1H16.8951C17.906 10.1 18.7297 10.9875 18.7297 12.075C18.7297 12.5875 19.1541 13.0125 19.6658 13.0125C20.1775 13.0125 20.6018 12.5875 20.6018 12.075C20.6018 9.95 18.9419 8.225 16.8951 8.225H16.4458V7.5C16.4458 6.9875 16.0214 6.5625 15.5097 6.5625C14.998 6.5625 14.5737 6.9875 14.5737 7.5V8.225H13.7625C11.9153 8.225 10.4052 9.7875 10.4052 11.7C10.4052 13.9375 11.7032 14.65 12.6891 15L14.5737 15.6625V19.8875H14.1244C13.1135 19.8875 12.2897 19 12.2897 17.9125C12.2897 17.4 11.8654 16.975 11.3537 16.975C10.842 16.975 10.4177 17.4 10.4177 17.9125C10.4177 20.0375 12.0776 21.7625 14.1244 21.7625H14.5737V22.5C14.5737 23.0125 14.998 23.4375 15.5097 23.4375C16.0214 23.4375 16.4458 23.0125 16.4458 22.5V21.775H17.257C19.1041 21.775 20.6143 20.2125 20.6143 18.3C20.6018 16.05 19.3038 15.3375 18.3303 15ZM13.3132 13.2375C12.6766 13.0125 12.2897 12.8 12.2897 11.7125C12.2897 10.825 12.9512 10.1125 13.7749 10.1125H14.5862V13.6875L13.3132 13.2375ZM17.257 19.9H16.4458V16.325L17.7063 16.7625C18.3428 16.9875 18.7297 17.2 18.7297 18.2875C18.7297 19.175 18.0683 19.9 17.257 19.9Z" fill="#025595"/>
</svg>
