<svg width="31" height="30" viewBox="0 0 31 30" fill="none" xmlns="http://www.w3.org/2000/svg">
<path d="M27.5645 28.4375H2.60436C2.09267 28.4375 1.66835 28.0125 1.66835 27.5C1.66835 26.9875 2.09267 26.5625 2.60436 26.5625H27.5645C28.0762 26.5625 28.5006 26.9875 28.5006 27.5C28.5006 28.0125 28.0762 28.4375 27.5645 28.4375Z" fill="#025595"/>
<path opacity="0.4" d="M26.3175 12.4748V27.4999H3.79007L3.85247 12.4623C3.85247 11.6998 4.20193 10.9749 4.81348 10.4999L13.5499 3.6999C14.4485 2.9874 15.7215 2.9874 16.6201 3.6999L18.2925 4.99987L23.8214 9.29988L25.3565 10.4999C25.9681 10.9749 26.3175 11.6999 26.3175 12.4748Z" fill="#025595"/>
<path d="M16.3326 21.25H13.8365C12.8006 21.25 11.9644 22.0875 11.9644 23.125V27.5H18.2047V23.125C18.2047 22.0875 17.3685 21.25 16.3326 21.25Z" fill="#025595"/>
<path d="M11.9645 17.1875H9.46841C8.78198 17.1875 8.22035 16.625 8.22035 15.9375V14.0625C8.22035 13.375 8.78198 12.8125 9.46841 12.8125H11.9645C12.651 12.8125 13.2126 13.375 13.2126 14.0625V15.9375C13.2126 16.625 12.651 17.1875 11.9645 17.1875Z" fill="#025595"/>
<path d="M20.7006 17.1875H18.2045C17.518 17.1875 16.9564 16.625 16.9564 15.9375V14.0625C16.9564 13.375 17.518 12.8125 18.2045 12.8125H20.7006C21.387 12.8125 21.9486 13.375 21.9486 14.0625V15.9375C21.9486 16.625 21.387 17.1875 20.7006 17.1875Z" fill="#025595"/>
<path d="M23.8207 9.3L18.2918 5H22.5477C23.2341 5 23.7957 5.54999 23.7957 6.23749L23.8207 9.3Z" fill="#025595"/>
</svg>
