<svg width="31" height="30" viewBox="0 0 31 30" fill="none" xmlns="http://www.w3.org/2000/svg">
<path opacity="0.4" d="M26.7111 10.5625C25.4006 4.7875 20.371 2.1875 15.9528 2.1875C15.9528 2.1875 15.9528 2.1875 15.9404 2.1875C11.5347 2.1875 6.49256 4.775 5.1821 10.55C3.72188 17 7.66574 22.4625 11.2352 25.9C12.5581 27.175 14.2555 27.8125 15.9528 27.8125C17.6502 27.8125 19.3476 27.175 20.658 25.9C24.2275 22.4625 28.1713 17.0125 26.7111 10.5625Z" fill="#025595"/>
<path d="M15.9524 16.825C18.1236 16.825 19.8838 15.0621 19.8838 12.8875C19.8838 10.7128 18.1236 8.94995 15.9524 8.94995C13.7811 8.94995 12.021 10.7128 12.021 12.8875C12.021 15.0621 13.7811 16.825 15.9524 16.825Z" fill="#025595"/>
</svg>
