<svg width="24" height="24" viewBox="0 0 24 24" fill="none" xmlns="http://www.w3.org/2000/svg">
<g clip-path="url(#clip0_1_228)">
<rect width="24" height="24" fill="white"/>
<mask id="mask0_1_228" style="mask-type:luminance" maskUnits="userSpaceOnUse" x="0" y="0" width="24" height="24">
<path d="M24 0.47998H0V23.52H24V0.47998Z" fill="white"/>
</mask>
<g mask="url(#mask0_1_228)">
<path d="M22.9567 3.51857C23.5591 2.94026 23.5592 1.97674 22.9567 1.39839C22.3881 0.852486 21.49 0.852509 20.9213 1.39845L12 9.96382L3.07864 1.39845C2.51001 0.852508 1.61191 0.852485 1.04325 1.39839C0.440809 1.97674 0.440832 2.94026 1.04331 3.51858L9.87896 12L1.04331 20.4814C0.440832 21.0597 0.44081 22.0232 1.04326 22.6015C1.61191 23.1474 2.51001 23.1474 3.07863 22.6015L12 14.0361L20.9213 22.6015C21.49 23.1474 22.3881 23.1474 22.9567 22.6015C23.5592 22.0232 23.5591 21.0597 22.9567 20.4814L14.121 12L22.9567 3.51857Z" fill="#025595"/>
</g>
</g>
<defs>
<clipPath id="clip0_1_228">
<rect width="24" height="24" fill="white"/>
</clipPath>
</defs>
</svg>
