<svg width="26" height="17" viewBox="0 0 26 17" fill="none" xmlns="http://www.w3.org/2000/svg">
<path d="M24.3947 7H1.91974C1.03314 7 0.314392 7.67158 0.314392 8.5C0.314392 9.32842 1.03314 10 1.91974 10H24.3947C25.2813 10 26 9.32842 26 8.5C26 7.67158 25.2813 7 24.3947 7Z" fill="#025595"/>
<path d="M1.91974 3.00001H24.3947C25.2813 3.00001 26 2.32843 26 1.5C26 0.67158 25.2813 0 24.3947 0H1.91974C1.03314 0 0.314392 0.67158 0.314392 1.5C0.314392 2.32843 1.03314 3.00001 1.91974 3.00001Z" fill="#025595"/>
<path d="M24.3947 14H1.91974C1.03314 14 0.314392 14.6716 0.314392 15.5C0.314392 16.3284 1.03314 17 1.91974 17H24.3947C25.2813 17 26 16.3284 26 15.5C26 14.6716 25.2813 14 24.3947 14Z" fill="#025595"/>
</svg>
