<svg width="25" height="24" viewBox="0 0 25 24" fill="none" xmlns="http://www.w3.org/2000/svg">
<path d="M17.6685 3.49999C17.6685 3.36738 17.6158 3.24021 17.522 3.14644C17.4282 3.05267 17.3011 2.99999 17.1685 2.99999H14.6685C13.4096 2.93728 12.1771 3.37538 11.2402 4.21857C10.3033 5.06176 9.73824 6.24149 9.66846 7.49999V10.2H7.16846C7.03585 10.2 6.90867 10.2527 6.8149 10.3464C6.72114 10.4402 6.66846 10.5674 6.66846 10.7V13.3C6.66846 13.4326 6.72114 13.5598 6.8149 13.6535C6.90867 13.7473 7.03585 13.8 7.16846 13.8H9.66846V20.5C9.66846 20.6326 9.72114 20.7598 9.8149 20.8535C9.90867 20.9473 10.0358 21 10.1685 21H13.1685C13.3011 21 13.4282 20.9473 13.522 20.8535C13.6158 20.7598 13.6685 20.6326 13.6685 20.5V13.8H16.2885C16.3996 13.8016 16.5082 13.7661 16.5969 13.6991C16.6857 13.6321 16.7496 13.5374 16.7785 13.43L17.4985 10.83C17.5184 10.7561 17.521 10.6787 17.5063 10.6036C17.4915 10.5285 17.4597 10.4578 17.4134 10.397C17.367 10.3361 17.3073 10.2867 17.2388 10.2526C17.1704 10.2184 17.095 10.2004 17.0185 10.2H13.6685V7.49999C13.6933 7.25247 13.8096 7.0231 13.9945 6.85669C14.1794 6.69027 14.4197 6.59875 14.6685 6.59999H17.1685C17.3011 6.59999 17.4282 6.54731 17.522 6.45355C17.6158 6.35978 17.6685 6.2326 17.6685 6.09999V3.49999Z" fill="white"/>
</svg>
